<svg xmlns="http://www.w3.org/2000/svg" width="28.285" height="32.286" viewBox="0 0 28.285 32.286">
  <g id="icon-close" transform="translate(-1294 -271.999)">
    <path id="Path_315" data-name="Path 315" d="M5658.143-9996.2l-8.485,8.484-5.658-5.658v-4l6.484-6.483-6.484-6.484v-4l5.658-5.658,8.485,8.487,8.484-8.487,5.658,5.658v4l-6.485,6.485,6.485,6.485v4l-5.658,5.655Z" transform="translate(-4350 10292)" fill="#813b2c"/>
    <path id="icon-close-2" data-name="icon-close" d="M5658.143-10000.2l-8.485,8.484-5.658-5.658,8.484-8.484-8.484-8.484,5.658-5.658,8.484,8.485,8.485-8.485,5.658,5.658-8.485,8.485,8.485,8.486-5.658,5.655Z" transform="translate(-4350 10292)" fill="#904a3b"/>
  </g>
</svg>
