<svg xmlns="http://www.w3.org/2000/svg" viewBox="0 0 126 125.48"><defs><style>.a{fill:none;stroke:#fff;stroke-miterlimit:10;stroke-width:4px;}.b{fill:#dfbfa0;}.c{fill:#cea98a;}.d{fill:#e7715f;}.e{fill:#d25c4f;}.f{fill:#c4937a;}.g{fill:#a96653;}.h{fill:#904a3b;}.i{fill:#b77d67;}</style></defs><title>favicon_2</title><path class="a" d="M124,24.34c0-7.88-18.13-19.71-23.65-22.07C97,.82,93.64,5.53,91.54,9.43A14,14,0,0,0,86,8.22a6.69,6.69,0,0,0-7.3,7.31,11.63,11.63,0,0,0,.63,3.92l-.81,1.19c-3.86,5.46-8.21,9-18.39,10.79-17.08,3-12.92-2.77-31.53,20.5C18.16,65,6.32,80.67,3.28,87.53c-3.7,4,.88,14.83,10.36,24.31S33.93,125.9,38,122.2c6.86-3,22.53-14.88,35.6-25.34C96.82,78.25,91,82.41,94.05,65.33c1.79-10.18,5.33-14.53,10.79-18.39l1.19-.81a11.63,11.63,0,0,0,3.92.63,6.69,6.69,0,0,0,7.31-7.3,14.57,14.57,0,0,0-1.45-6.08C119.44,30.88,124,27.18,124,24.34Z"/><path class="b" d="M94.05,65.33c2.36-13.4,7.73-16.7,16.55-22.07L96.41,29.07,82.22,14.88c-5.37,8.82-8.67,14.19-22.07,16.55-17.08,3-12.92-2.77-31.53,20.5C18.16,65,6.32,80.67,3.28,87.53c-3.7,4,.88,14.83,10.36,24.31S33.93,125.9,38,122.2c6.86-3,22.53-14.88,35.6-25.34C96.82,78.25,91,82.41,94.05,65.33Z"/><path class="c" d="M71.56,91.38C60.32,100.29,47,110.57,41.17,113.22c-3.44,3.18-12.53-.57-20.43-8.48s-11.66-17-8.48-20.43c2.65-5.83,12.93-19.15,21.84-30.39C47.54,37,46.27,39.07,60.94,37.74,69.61,37,72,36.16,83,25.13l8.67,8.67,8.67,8.67c-11,11-11.82,13.4-12.61,22.07C86.41,79.21,88.53,77.94,71.56,91.38Zm33.28-44.44c1-.72,2.11-1.42,3.26-2.14a5.12,5.12,0,0,0-2.82-.56C102.59,44.24,102.77,44.82,104.84,46.94ZM80.68,17.38c-.72,1.15-1.42,2.24-2.14,3.26,2.12,2.07,2.7,2.25,2.7-.44A5.12,5.12,0,0,0,80.68,17.38Z"/><path class="b" d="M115.33,44.83a6.68,6.68,0,0,0,1.93-5.37c.2-4.72-4.16-12.62-11.39-19.85S90.74,8,86,8.22a6.69,6.69,0,0,0-7.3,7.31c-.21,4.72,4.16,12.62,11.38,19.85S105.23,47,110,46.76A6.64,6.64,0,0,0,115.33,44.83Z"/><path class="d" d="M41.28,45.12c-1.88,2.14-4.16,5-7.18,8.8C25.19,65.16,14.91,78.48,12.26,84.31c-3.18,3.44.57,12.53,8.48,20.43s17,11.66,20.43,8.48c5.83-2.65,19.15-12.93,30.39-21.84,4.35-3.44,7.44-5.92,9.66-7.95a19.55,19.55,0,0,0-5.3,0c-4.7.58-10.25-5.52-10.25-7.88,0-3.16.79-3.94-3.94-10.25s1.57-11,4.73-9.46,4.73,4.73,3.15,6.31,4.73,1.57,5.52-5.52-8.67-13.4-17.34-11C50,47.75,47.92,49.87,41.28,45.12Z"/><path class="e" d="M43.6,67.69a3.34,3.34,0,1,1,0-4.73A3.34,3.34,0,0,1,43.6,67.69ZM55.42,90.55a2.23,2.23,0,1,0,0,3.16A2.23,2.23,0,0,0,55.42,90.55Zm-25.22,0a1.13,1.13,0,0,0-1.58,0,1.12,1.12,0,1,0,1.58,1.58A1.13,1.13,0,0,0,30.2,90.55Z"/><path class="f" d="M90.89,13.3c-5.82,1.46-9.46,11-8.67,13.4s-3.94,3.95-2.36,7.1,10.24,15,14.19,12.61,3.94-3.94,6.3-3.15,7.65-1.71,11.83-8.67C114.54,30.65,97.2,11.73,90.89,13.3Z"/><path class="g" d="M124,24.34c0-7.88-18.13-19.71-23.65-22.07S89.45,14,89.32,14.09C88,15.4,91.89,21.4,98,27.49s12.09,10,13.4,8.67C111.39,36.16,124,29.07,124,24.34Z"/><path class="h" d="M97.23,21.88a2,2,0,0,1-2.62-1,2,2,0,0,1,.2-2.78,2,2,0,0,1,2.61,1A2,2,0,0,1,97.23,21.88Zm14.17,5.65c-1.31.85-1.85,2.36-1.19,3.37s2.24,1.14,3.55.29,1.85-2.35,1.2-3.36S112.71,26.69,111.4,27.53Zm-1.13-14.78c-.68-.67-1.6-.85-2.07-.38s-.29,1.39.38,2.07,1.61.85,2.07.39S111,13.43,110.27,12.75Z"/><path class="i" d="M86.16,36.16a1.18,1.18,0,1,1,0-1.62A1.14,1.14,0,0,1,86.16,36.16ZM99.8,34.83c-2-.74-3.91-.77-4.17-.07s1.21,1.87,3.25,2.61,3.92.76,4.17.06S101.85,35.57,99.8,34.83ZM98,43.54a2.13,2.13,0,0,1,1.75-.44c-.95-.59-1.92-1.24-2.91-2,0,.19.09.63.49,1.42A4.11,4.11,0,0,0,98,43.54ZM82.22,26.7a1.74,1.74,0,0,1,0,1.06,4.65,4.65,0,0,0,.7.43c.79.4,1.23.54,1.42.49q-1.23-1.68-2.19-3.3A3.59,3.59,0,0,0,82.22,26.7Z"/></svg>