<svg xmlns="http://www.w3.org/2000/svg" viewBox="0 0 138.47 108.56"><defs><style>.a{fill:#200e0c;}.b{fill:#ea866c;}.c{fill:#f5a980;}.d{fill:#9f4233;}</style></defs><title>logo_sf</title><path class="a" d="M138,27.32c-.2-2.76,2.24-7.94-2.08-9.85-3-1.38-7.65-7.63-11.78-2.11-2.68-3.53-7.79-1.36-13.12,0-11.37.67-9.58-5.67-22.75,3.42a7,7,0,0,0-3-4.89,2.44,2.44,0,0,1,.32-.4h0C91.17,9,91.39,7.1,83.64,1.34c-4.21-2.79-7.17,1.17-11,5.37-2.22-3.19-8.42-.49-14.49,2.58C55.61,3.5,46.81.09,40.41,4.1,33.82,4.1,27.07,1.32,19.72,0,15.65,3,10.44,2.3,4.77,2.36c-6,2.78-6.56,8.57-.42,13.68-1.46,9-2.74,9.13-.18,17.88-.24,4.51-3.62,7.6-.57,10.31,3.26.69,4.87,6.45,9.39,7.55,1.78.64,16.23-12.26,9.79-15.91,2.6,1.14,5.85-.53,8.27-3.35,1.72,15.21,11.31,20.22,25.34,11,5.47,5.06,7.74,5.33,16.45,0,1.48,5.7,7.34,4.82,13.23,1.74,11.56-.29,5.63,6.85,21.59-2.61,0,5.58,9.57,3.48,12.83,3.85.24,1.2.25,2.81,2.4,3.73-12.67-5.38-22.67-5-31.67,7.2-4.56-.58-11.78-3.85-16,.93-2.79-1.59-4.74,1.13-9.23,1.43-2.31-.48-4.71-.68-6.12,1.93-4.21,2.21-1.13,6.09-1,11.7-8-.52-9.75-2.31-18.69,3.33a4.4,4.4,0,0,0-4.6-2.31c3.56-2.15,11.6-12.25,2.89-13.92C33.68,62,30,59.89,25,58.15c-3.57,0-3.91,4.19-7.75,4.31a8.56,8.56,0,0,0-8.81,3c-2.83,4.49,1.69,6,1.43,9.64,1.15,3.34-1.51,10.83.23,14.17C9.82,94.65,2,104.09,14.2,103.71c15.2,1.89,3.64,6.62,23-.11,9.34.78,7,5.81,19.6,1,1.46,2.9,4.58,2.91,9,1.49,5.71,3.41,6.23,2.82,13,0,4.31,2.19,7.13,4.73,12.16-1.17,6.69,3.62,6.09,1.49,15.81-.72,5.23,4.41,27.67.21,16.85-9.07V90.71c5.71,1.1,12.41-8.45,9.09-14.76,5.28-2.29,8.68-10.52-1.8-10.23,3.91-3.2,9.31-17.54,2.9-20.61C140.36,42.52,137.47,33.25,138,27.32Z"/><path class="b" d="M110,19.19c-3.7.61-10.71-.93-12.29-1.78-.43,1.3-6.56,4.28-10.94,7.21.11,2.6,2.65,4.53-.2,16.75,1.81.06,3.65-.55,11.33,2.52,1.76-1.31,4.43-4.44,10.08-5.42a12.36,12.36,0,0,1,2.28-1.86C109.67,33.28,109,22.43,110,19.19Zm-10.58,17c-1.31-.22-2.51-.39-3.6-.52a81.36,81.36,0,0,0,.07-11.15,34.71,34.71,0,0,0,5.27.88l-.07,11.12c-.56-.15-1.11-.27-1.67-.37ZM85.48,40v.72c-1,.11-2.26,1.84-2.26,1.84-6.11,1.17-4.23,1.15-5.9,1.34C73.89,37,76.43,29.72,75.69,22l-1.78-.77v-.53a15.43,15.43,0,0,0,2.31-1.88c4.11-.65,5.79-1.14,7.15-1.44l.87,1.44c.48,2.79-1.81,20,1.24,21.12ZM75.38,18.78H68.61c-.16-3.69,0-4.84.77-9.79-2.26,1.12-4.27,2.34-7.89,2.69a16.75,16.75,0,0,1-2.27,1.84c.27.79.57,1.35.72,6.66a12.45,12.45,0,0,1-2,1s-.7,1.42-1.46,1.76c.51-1.88-2.61-3.21-3.62-8.09,1.82-1.39,2.55-5.56-2.2-7.07C48.22,4.7,42.42,6.52,39,10.36c-1.58.5-3.66,4.27-.79,6.48.43,1.76-1.71,2.78-3.49,7.24-.83-1.77-1.18-4.77-.79-11.21,1-.88,1.79-.1,4.49-5.38-3.25.78-10.93,0-17.26-3.77-4,1.36-3.61,3.9-14.91,2.35A6.35,6.35,0,0,1,3.9,7.93c.27,1.37.47,4.14,4.32,5.66C7.88,14.76,9.65,18.93,6,25.77c1.8,2.75,3.73,8.65.23,15.44C7.48,42.3,9.87,42.32,13,47.78c2.84-1.6,3.57-5.67,7.47-8.6C19.09,38,17.34,36.7,17,31.36c2,.21,3.31-.31,8.17,1,1.65-1.28,4.73-4.62,7.79-5.19a7.51,7.51,0,0,1,1.52-1.46c.49,14.2,4,23.83,18.85,15.12,2.6-2.44,2.28-10,3.1-17.1H59.9V41.52c.87.5-.5-.39,4.18,2.29.58-.93,4.84-2.2,8.64-5.26v-.68c-5.66-.26-4.23-7-4.23-13.55l2.37.27a14.46,14.46,0,0,1,2.36-1.83c.3-.73.87-2.78,2.21-3.83ZM24.8,24.21c-.76,0-.91-.71-7.88-.51v-11a66.11,66.11,0,0,0,8.3,2.15c.09,1.2,0-.51.27,9.58A3.26,3.26,0,0,0,24.8,24.21ZM85.8,8.1a13.91,13.91,0,0,0-4.7,5,7.92,7.92,0,0,0-2,2c-2.84-2.62-3.25-2.46-4.76-3.75,3.13-4.48,4.84-5.6,6.62-6.89A20,20,0,0,0,85.8,8.1Zm48.61,31.57c-.67.24-2.37,1.59-2.31,1.86a42.43,42.43,0,0,0-7.31,5.18l-.22-.21c2.59-14.86.69-14.88,1.25-20.5l-.62-.67-3.6,1.61c.1,1.4-1,12.74,1.3,13v.72l-2.37,1.86H111.7V41.8c3-3,.49-16.09,1.29-19.82l-1.77-.79v-.53c1.12-.16,2-2,2-2,4.1-.64,6.09-1,7.46-1.3l.86,1.44-.1,3.66c2-1.4,4.48-3.3,7.05-5.5a17.25,17.25,0,0,0,6.09,4.32c-1.2,8.86-.64,17.64-.22,18.39Z"/><path class="b" d="M23.22,79.77c7.93-1.74,9-.9,13.3-1.39-1,11.82-.23,17.15.62,20.11a7.19,7.19,0,0,0-2.31,1.86c-5.87.36-7,1.91-8.54,2.93-8.26-4.62-12-3.3-15.08-3.94,4-5.88,1.91-7.09,2.2-7.71a7.92,7.92,0,0,0,2-2c6.08,1.92,8.22,4.29,11.43,5.57.7-4.33.3-8.57-.66-10.47-12,1.42-8.46,1.35-12.72,2.11,1.79-11.09,0-16.28-1.86-18.9a18.8,18.8,0,0,0,2.31-1.86c6.78,1.1,7.76-.65,9.06-2.07.09.06,1-.87,2.31-1.86C32.4,66.59,37.37,65,38.44,64.53c-6.08,13.26-15,5.7-15.47,5.85A20.28,20.28,0,0,0,23.22,79.77Zm37.16,8.39A8.48,8.48,0,0,0,58.07,90c-6.88.65-7.81.94-10,1.24-.34,3.35-.27,2.68-.34,3.38,6,1.57,4.54.81,5.85,1.14.91-1.06,4.59-4.41,5.51-4.16,0,6.53.48,5.78.58,6.63-.73.08-2.19,1.49-2,2-9.31,1.86-7.74,2.6-8.87,2.79-9.59-4.74-8.81-2.42-9.93-3.13,3.59-13.75-.11-16,.39-17.33.8-.14,2.12-1.57,2-2,2.52-.64,4.75-2.1,7.46-4.13a79.44,79.44,0,0,0,10.56,1,25.56,25.56,0,0,0,1.06,10.71ZM48,83.09c.3,3.89.19,3,.25,3.88l3.33-.82a12.54,12.54,0,0,1-.36-2.73A21.69,21.69,0,0,1,48,83.09ZM84.83,98c-1-.09-.55-24.5-.64-26a33.85,33.85,0,0,1-7.5-8.29,6.81,6.81,0,0,1-2,2c1.49,3.85,3,31.43-.39,36.23-3.6,0-4.69-34.61-1.08-40.08-1.68.74-6.12,3-9.67,1.54a3.76,3.76,0,0,1-2,2c1.44,2.16,3.67,35.44-1.13,37.16v.41c1.48-.37-.52.8,6.14-1.38,1.57,1.32.67.84,5.62,3.09a15.46,15.46,0,0,1,2.12-1.74c.36.07,1.14,0,5.3-1.35,1.58,1.33.6.85,5.57,3.09.36-.67,1.71-1.15,2.6-2.29a23,23,0,0,1-3-4.39Zm49.11-28.1c-8-.71-9.64-1-16.9-3.63A.83.83,0,0,0,117,66c14.38,5.13,19.16-22.8,13.06-15.75-7.21,8.14-16.18,2.7-20.8.92C105,50.62,95.86,55.5,93.35,62c-5.84,0-9.45-2.69-14.27-2a21,21,0,0,1-2,2c11.42,21.13,45.7,17.78,56.82,7.89ZM108.51,88.15A6.35,6.35,0,0,0,106.2,90c-6.92.66-7.49.89-9.66,1.19-.11,1.44-.25,2.49-.36,3.57,1,.51,5,1,6.51,1.2.16-1.94,3.32-4.34,4.85-4.22-.14,5.27.39,6,.57,6.63a13.36,13.36,0,0,0-2.31,1.86c-9.31,1.86-7.73,2.6-8.86,2.8C87.35,98.29,86.68,101.2,87,99.9c3.13-12.8.8-16.81.38-17.33,1.56-1.52,8-4.06,8-4.88,2.29.18,8,2.07,11.84,2.1.41,7.1,1,7.73,1.25,8.36Zm-9.08-4.74a21.44,21.44,0,0,1-3.3-.32c.3,3.88.21,3,.26,3.87l3.32-.82a13.22,13.22,0,0,1-.32-2.73Zm22.84-5a5.8,5.8,0,0,1-2,2c-.29.66,0,0-.94,2V79a50.28,50.28,0,0,1-6.24.71s-1.32,2-2,2c-.64,3.27,1.5,16.8-1.29,19v.83h10.26l2.31-1.86v-.81c-5.48-.76-3.23-10.8-.27-13.47.08,0,1.91,1,2.9,1.54,2.16-1,4.62-5,4.76-8.29-1.19-.28-2.36-.63-3.51-1-1.2.28-2.74.5-4,.8ZM38.4,64.52c-6.08,13.26-15,5.7-15.47,5.85"/><path class="c" d="M77.59,10.21l-1-.77a13.74,13.74,0,0,1,4.63-4.92,23.19,23.19,0,0,0,4.53,3.55,13.91,13.91,0,0,0-4.7,5A30.54,30.54,0,0,0,77.59,10.21ZM78,36.8A8.45,8.45,0,0,0,79.58,42c1.53-.21,2.57-.82,5.9-1.34v-.72c-2.58-1-.79-19-1.29-21.12l-.87-1.44c-1.67.41-4.41,1-7.15,1.44v.53L78,20.1Zm56.08.45c0-5.35-.53-10.12.5-16a21.23,21.23,0,0,1-6.09-4.32,37.36,37.36,0,0,1-7.06,5.85l.11-4-.86-1.44c-1.66.41-4.41,1-7.15,1.44v.53l1.77.77c-.62,2.83,1.48,18-1.29,19.83v.72h8.83v-.71c-2.34-.85-.94-11.8-1.3-13.81l6-2.59.62.67c-.12,6.6.53,13.4-1.25,20.45l.22.21a21.24,21.24,0,0,1,7.32-5.18A14,14,0,0,1,134,37.25ZM15.22,45.92a14.61,14.61,0,0,0-6.77-6.57c2.28-4,3-10.68-.23-15.46,2.1-3.19,2.53-7.56,2.23-12.18A6,6,0,0,1,6.22,6.05c4.63.86,10,.88,14.91-2.35A30.84,30.84,0,0,0,38.39,7.52a12,12,0,0,1-4.17,5.19c-.4,2.9-1.2,8.48,1.08,12.55a13.5,13.5,0,0,0-7.85,5.26c-3-1-6-.89-10.17-1-.07,3.24,0,7.35,3.45,9.87C18.51,40.86,17,42.8,15.22,45.92Zm2-22.08c2.85,0,5.4-.4,9,.94.39-.38-.43-.11,1.58-1.71-.07-2.53-.21-5.75-.29-10.08C25,12.58,21,11.33,17.24,10.26V23.84ZM89.83,37.23A39.82,39.82,0,0,0,89,22.76c2.88-.63,6-2.73,8.64-5.35h0c3.35,1.11,7.79,2.35,12.32,1.78a56.54,56.54,0,0,0,.23,17.42,18.66,18.66,0,0,0-10,5.42,23.32,23.32,0,0,0-11.33-2.51,4,4,0,0,0,1-2.28Zm6.06-15.34a74,74,0,0,1,.19,13.88,42.57,42.57,0,0,1,7.25,1.39l.1-13.64A27.84,27.84,0,0,1,95.89,21.89ZM68.61,16.2A28.52,28.52,0,0,1,69.38,9a20.34,20.34,0,0,1-7.89,2.69,26.14,26.14,0,0,1,.73,7.16,13.53,13.53,0,0,1-4,2.5v.52h4V39.69c.89.46,1.9.94,4.18,2.29a25.44,25.44,0,0,1,6.33-3.4V37.9C66.42,38,69,26,68.5,22.21l4.68.55a9.12,9.12,0,0,1,2.21-3.83v-.19H68.61ZM46.82,42.64c-10.76.5-8.89-10.86-10-20.12,0-2.78,3.17-3.25,3.59-7.53-2.44-1.72-1.83-6,2-7,.7-1.07,8-2.91,8.49,0,2.57.5,5.49,4.37,2.21,7.06-.22,2.82,3.66,5.37,3.58,7.53C55.71,33,57.3,42.89,46.82,42.64ZM40.91,25.52c1-4.36,7.59-3.92,6.93-.58-6,0,2.4,4.62,4.74,1.45,1.17-5.68-2.31-4.74-3.36-9.87a13.53,13.53,0,0,1-4.49.07l-.41-.07C44.15,20.22,40.22,20.7,40.91,25.52Z"/><path class="d" d="M108.62,60.67c.42,6.44-5.2,7.12-9.12,4.18C98.86,59,104.75,56.6,108.62,60.67Zm-12-2.3c.92.18,1.74.35,2.5.52,1.78-3.51,13.16-2.89,11.29,3.59a48.87,48.87,0,0,0,7.15.67c1.13,1.6,4.64,1.37,8.35,1,5.45-5.16,6.12-5.81,6.47-11.37.84-6.7-.94-2.62-3.86-.09-5.23,4.19-9.29,1.37-16-1.18-2.78-1.82-12.46,1.58-15.86,6.86Zm12.48,8.06c-1,3.11-13.24,3-11.54-3.5-5.45-1.1-13-3.77-18.17-2.83,9.23,17.84,38.33,19.6,54.55,9.71-9.8-.35-15-4.29-24.84-3.38ZM85.1,98.1c-1.22-2.9-.43-22.54-.64-26A33.48,33.48,0,0,1,77,63.81c2.17,4.65,1,8.52,1.26,19.62-.8,10.71,2.14,12.47-2.5,17.26v.41a16.44,16.44,0,0,0,6.14-1.38c.47.84,3.89,2.35,5.57,3.09l.29-.43C86.73,101,85.93,100.52,85.1,98.1Zm37.44-19.58a42.75,42.75,0,0,1-2.94,5.66v-5a50.28,50.28,0,0,1-6.24.71c-.5,2.52,1.28,18-1.29,19.07v.72h10.26v-.81c-3.77.39-2.59-7.53-2.74-10l3.89-5.47c.36-.29,3.27,1.45,3.79,1.68a12.35,12.35,0,0,0,2.45-6.43c-1.19-.28-2.36-.63-3.51-1C125.05,77.91,123.82,78.26,122.54,78.52ZM96.38,92.42c-.09.89-.18,1.68-.24,2.35a30.35,30.35,0,0,0,7,1.25c.29-1.87,1.64-3.51,4.37-4.27.09,1.81-.31,3.94.57,6.63a25,25,0,0,0-8.86,2.8h0a21,21,0,0,0-9.93-3.13c1.8-4.34,2-11.54.38-17.33a12.18,12.18,0,0,0,5.88-3.11,55.11,55.11,0,0,0,11.74,2.18,28.56,28.56,0,0,0,1.25,8.36c-3.29.27-7.63.81-11.9,1.54C96.59,90.6,96.51,91.52,96.38,92.42Zm.11-8.15c.08,1,.14,2,.17,2.83l5.61-1.39a18.29,18.29,0,0,1-.57-4.16,23.72,23.72,0,0,1-5.56-.82h0C96.29,82.06,96.41,83.25,96.49,84.27ZM48.22,92.43c-.1.89-.17,1.68-.24,2.35A31.45,31.45,0,0,0,55,96c.36-1.85,1.72-3.47,4.44-4.24.13,2.56-.37,3.21.58,6.63a25.25,25.25,0,0,0-8.87,2.79,20.91,20.91,0,0,0-9.91-3.13c1.85-4.35,1.94-11.55.34-17.36a14.47,14.47,0,0,0,7.15-4.27,77.81,77.81,0,0,0,10.56,1,27.11,27.11,0,0,0,1.1,10.7c-3.35.26-7.57.82-11.9,1.54A25.13,25.13,0,0,1,48.22,92.43ZM48,80.73c.23,2.14.38,3.13.52,6.38l5.62-1.39a17.18,17.18,0,0,1-.58-4.16A22.26,22.26,0,0,1,48,80.73ZM72.09,98.1c-.61-7.64-2.36-29.17,1.13-36.28-2.47,1-5.59,2.69-9.4,1.7,2.47,5.24,1,8.39,1.4,19.94-.78,10.65,2.11,12.67-2.5,17.22v.41a16.44,16.44,0,0,0,6.14-1.38c.64.86,2.9,1.88,5.62,3.09l.29-.43c-1-1.41-1.78-1.91-2.66-4.27ZM23.9,67.91c4.43,2.93,12.52,4.36,14.5-3.39-3.79,1.1-8.42.67-13.19-2.37-2.1,3.68-6.35,5-11.33,3.93,3.61,5.11,2.74,12.14,1.86,18.9a84.19,84.19,0,0,1,12.72-2.11c1.5,3.27,1.26,8.53,0,13.15-4.06-1.67-7.86-4.87-12.82-6.25a8.75,8.75,0,0,1-2.2,7.75c4.75.31,10.06.75,15.08,3.94a12.84,12.84,0,0,1,8.58-2.94C35.64,92.6,36,85.25,36.48,78.41c-4.43.28-8.29,0-13.3,1.39C22.47,76.81,21.78,71.85,23.9,67.91Z"/></svg>