<svg xmlns="http://www.w3.org/2000/svg" viewBox="0 0 188 254"><defs><style>.a{fill:#351a14;opacity:0.1;isolation:isolate;}.b{fill:#dfbfa0;}.c{fill:none;stroke:#cea98a;stroke-miterlimit:10;stroke-width:4px;}.d{fill:#200e0c;}.e{fill:#ea866c;}.f{fill:#f5a980;}.g{fill:#9f4233;}</style></defs><title>logo</title><path class="a" d="M186,6H2A2,2,0,0,0,0,8V252a2,2,0,0,0,3.2,1.6L94,185.5l90.8,68.1A2,2,0,0,0,188,252V8A2,2,0,0,0,186,6Z"/><path class="b" d="M186,244h0L94,175,2,244V0H186Z"/><polygon class="c" points="10 8 178 8 178 228 94 164.5 10 228 10 8"/><path class="d" d="M162.74,52.8c-.2-2.76,2.24-7.94-2.08-9.85-3-1.38-7.65-7.63-11.78-2.11-2.68-3.53-7.79-1.36-13.12-.05-11.37.67-9.58-5.67-22.75,3.42a7,7,0,0,0-3-4.89,2.35,2.35,0,0,1,.32-.4h0c5.62-4.45,5.84-6.34-1.91-12.1-4.21-2.79-7.17,1.17-11,5.37C95.2,29,89,31.7,82.93,34.77c-2.54-5.79-11.34-9.2-17.74-5.19-6.59,0-13.34-2.78-20.69-4.1-4.07,3-9.28,2.3-14.95,2.36-6,2.78-6.56,8.57-.42,13.68-1.46,9-2.74,9.13-.18,17.88-.24,4.51-3.62,7.6-.57,10.31,3.26.69,4.87,6.45,9.39,7.55C39.55,77.9,54,65,47.56,61.35c2.6,1.14,5.85-.53,8.27-3.35,1.72,15.21,11.31,20.22,25.34,11,5.47,5.06,7.74,5.33,16.45,0,1.48,5.7,7.34,4.82,13.23,1.74,11.56-.29,5.63,6.85,21.59-2.61,0,5.58,9.57,3.48,12.83,3.85.24,1.2.25,2.81,2.4,3.73C135,70.33,125,70.7,116,82.91c-4.56-.58-11.78-3.85-16,.93-2.79-1.59-4.74,1.13-9.23,1.43-2.31-.48-4.71-.68-6.12,1.93-4.21,2.21-1.13,6.09-1.05,11.7-8-.52-9.75-2.31-18.69,3.33a4.4,4.4,0,0,0-4.6-2.31C63.87,97.77,71.91,87.67,63.2,86c-4.74,1.44-8.38-.63-13.38-2.37-3.57,0-3.91,4.19-7.75,4.31a8.57,8.57,0,0,0-8.81,3c-2.83,4.49,1.69,5.95,1.43,9.64,1.15,3.34-1.51,10.83.23,14.17-.32,5.38-8.14,14.82,4.06,14.44,15.2,1.89,3.64,6.62,23-.11,9.34.78,7,5.81,19.6,1,1.46,2.9,4.58,2.91,9,1.49,5.71,3.41,6.23,2.82,13,0,4.31,2.19,7.13,4.73,12.16-1.17,6.69,3.62,6.09,1.49,15.81-.72,5.23,4.41,27.67.21,16.85-9.07v-4.42c5.71,1.1,12.41-8.45,9.09-14.76,5.28-2.29,8.68-10.52-1.8-10.23C159.6,88,165,73.66,158.59,70.59,165.14,68,162.25,58.73,162.74,52.8Z"/><path class="e" d="M134.74,44.67c-3.7.61-10.71-.93-12.29-1.78-.43,1.3-6.56,4.28-10.94,7.21.11,2.6,2.65,4.53-.2,16.75,1.81.06,3.65-.55,11.33,2.52,1.76-1.31,4.43-4.44,10.08-5.42A12.36,12.36,0,0,1,135,62.09C134.45,58.76,133.77,47.91,134.74,44.67Zm-10.58,17c-1.31-.22-2.51-.39-3.6-.52A81.36,81.36,0,0,0,120.63,50a34.71,34.71,0,0,0,5.27.88L125.83,62c-.56-.15-1.11-.27-1.67-.37Zm-13.9,3.77v.72C109.29,66.27,108,68,108,68c-6.11,1.17-4.23,1.15-5.9,1.34-3.43-6.88-.89-14.14-1.63-21.88l-1.78-.77v-.53A15.43,15.43,0,0,0,101,44.28c4.11-.65,5.79-1.14,7.15-1.44l.87,1.44c.48,2.79-1.81,20,1.24,21.12Zm-10.1-21.18H93.39c-.16-3.69,0-4.84.77-9.79-2.26,1.12-4.27,2.34-7.89,2.69A16.75,16.75,0,0,1,84,39c.27.79.57,1.35.72,6.66a12.45,12.45,0,0,1-2,1s-.7,1.42-1.46,1.76c.51-1.88-2.61-3.21-3.62-8.09,1.82-1.39,2.55-5.56-2.2-7.07C73,30.18,67.2,32,63.74,35.84c-1.58.5-3.66,4.27-.79,6.48.43,1.76-1.71,2.78-3.49,7.24-.83-1.77-1.18-4.77-.79-11.21,1-.88,1.79-.1,4.49-5.38-3.25.78-10.93,0-17.26-3.77-4,1.36-3.61,3.9-14.91,2.35a6.35,6.35,0,0,1-2.31,1.86c.27,1.37.47,4.14,4.32,5.66-.34,1.17,1.43,5.34-2.23,12.18C32.57,54,34.5,59.9,31,66.69c1.26,1.09,3.65,1.11,6.77,6.57,2.84-1.6,3.57-5.67,7.47-8.6-1.37-1.22-3.12-2.48-3.45-7.82,2,.21,3.31-.31,8.17,1,1.65-1.28,4.73-4.62,7.79-5.19a7.51,7.51,0,0,1,1.52-1.46c.49,14.2,4,23.83,18.85,15.12,2.6-2.44,2.28-10,3.1-17.1h3.46V67c.87.5-.5-.39,4.18,2.29.58-.93,4.84-2.2,8.64-5.26v-.68c-5.66-.26-4.23-7-4.23-13.55l2.37.27A14.46,14.46,0,0,1,98,48.24c.3-.73.87-2.78,2.21-3.83ZM49.58,49.69c-.76,0-.91-.71-7.88-.51v-11A66.11,66.11,0,0,0,50,40.33c.09,1.2,0-.51.27,9.58A3.26,3.26,0,0,0,49.58,49.69Zm61-16.11a13.9,13.9,0,0,0-4.7,5,7.92,7.92,0,0,0-2,2c-2.84-2.62-3.25-2.46-4.76-3.75,3.13-4.48,4.84-5.6,6.62-6.89A20.19,20.19,0,0,0,110.58,33.58Zm48.61,31.57c-.67.24-2.37,1.59-2.31,1.86a42.08,42.08,0,0,0-7.31,5.18l-.22-.21c2.59-14.86.69-14.88,1.25-20.5l-.62-.67-3.6,1.61c.1,1.4-1,12.74,1.3,13v.72L145.31,68h-8.83v-.72c3-3,.49-16.09,1.29-19.82L136,46.67v-.53c1.12-.16,2-2,2-2,4.1-.64,6.09-1,7.46-1.3l.86,1.44-.1,3.66c2-1.4,4.48-3.3,7.05-5.5a17.25,17.25,0,0,0,6.09,4.32c-1.2,8.86-.64,17.64-.22,18.39Z"/><path class="e" d="M48,105.25c7.93-1.74,9-.9,13.3-1.39-1,11.82-.23,17.15.62,20.11a7.19,7.19,0,0,0-2.31,1.86c-5.87.36-7,1.91-8.54,2.93-8.26-4.62-12-3.3-15.08-3.94,4-5.88,1.91-7.09,2.2-7.71a7.92,7.92,0,0,0,2-2c6.08,1.92,8.22,4.29,11.43,5.57.7-4.33.3-8.57-.66-10.47-12,1.42-8.46,1.35-12.72,2.11,1.79-11.09,0-16.28-1.86-18.9a18.8,18.8,0,0,0,2.31-1.86c6.78,1.1,7.76-.65,9.06-2.07.09.06,1-.87,2.31-1.86,7.12,4.44,12.09,2.89,13.16,2.38-6.08,13.26-15,5.7-15.47,5.85A20.28,20.28,0,0,0,48,105.25Zm37.16,8.39a8.48,8.48,0,0,0-2.31,1.86c-6.88.65-7.81.94-10,1.24-.34,3.35-.27,2.68-.34,3.38,6,1.57,4.54.81,5.85,1.14.91-1.06,4.59-4.41,5.51-4.16,0,6.53.48,5.78.58,6.63-.73.08-2.19,1.49-2,2-9.31,1.86-7.74,2.6-8.87,2.79-9.59-4.74-8.81-2.42-9.93-3.13,3.59-13.75-.11-16,.39-17.33.8-.14,2.12-1.57,2-2,2.52-.64,4.75-2.1,7.46-4.13a79.44,79.44,0,0,0,10.56,1,25.56,25.56,0,0,0,1.06,10.71Zm-12.38-5.07c.3,3.89.19,3,.25,3.88l3.33-.82A12.54,12.54,0,0,1,76,108.9,20.85,20.85,0,0,1,72.78,108.57Zm36.83,14.87c-1-.09-.55-24.5-.64-26a33.85,33.85,0,0,1-7.5-8.29,6.81,6.81,0,0,1-2,2c1.49,3.85,3,31.43-.39,36.23-3.6,0-4.69-34.61-1.08-40.08-1.68.74-6.12,3-9.67,1.54a3.76,3.76,0,0,1-2,2C87.77,93,90,126.28,85.2,128v.41c1.48-.37-.52.8,6.14-1.38,1.57,1.32.67.84,5.62,3.09a15.46,15.46,0,0,1,2.12-1.74c.36.07,1.14,0,5.3-1.35,1.58,1.33.6.85,5.57,3.09.36-.67,1.71-1.15,2.6-2.29a22.94,22.94,0,0,1-3-4.39Zm49.11-28.1c-8-.71-9.64-1-16.9-3.63a1.29,1.29,0,0,0-.06-.21c14.38,5.13,19.16-22.8,13.06-15.75-7.21,8.14-16.18,2.7-20.8.92-4.21-.57-13.38,4.31-15.89,10.78-5.84,0-9.45-2.69-14.27-2a21,21,0,0,1-2,2c11.42,21.13,45.7,17.78,56.82,7.89Zm-25.43,18.29a6.35,6.35,0,0,0-2.31,1.86c-6.92.66-7.49.89-9.66,1.19-.11,1.44-.25,2.49-.36,3.57,1,.51,5,1,6.51,1.2.16-1.94,3.32-4.34,4.85-4.22-.14,5.27.39,6,.57,6.63a13.36,13.36,0,0,0-2.31,1.86c-9.31,1.86-7.73,2.6-8.86,2.8-9.59-4.75-10.26-1.84-9.94-3.14,3.13-12.8.8-16.81.38-17.33,1.56-1.52,8-4.06,8-4.88,2.29.18,8,2.07,11.84,2.1.41,7.1,1,7.73,1.25,8.36Zm-9.08-4.74a21.44,21.44,0,0,1-3.3-.32c.3,3.88.21,3,.26,3.87l3.32-.82a13.22,13.22,0,0,1-.32-2.73Zm22.84-5a5.8,5.8,0,0,1-2,2c-.29.66,0,0-.94,2v-3.43a50.28,50.28,0,0,1-6.24.71s-1.32,2-2,2c-.64,3.27,1.5,16.8-1.29,19V127h10.26l2.31-1.86v-.81c-5.48-.76-3.23-10.8-.27-13.47.08,0,1.91,1,2.9,1.54,2.16-1.05,4.62-5,4.76-8.29-1.19-.28-2.36-.63-3.51-1-1.2.28-2.74.5-4,.8ZM63.18,90c-6.08,13.26-15,5.7-15.47,5.85"/><path class="f" d="M102.37,35.69l-1-.77A13.78,13.78,0,0,1,106,30a23.31,23.31,0,0,0,4.53,3.55,13.91,13.91,0,0,0-4.7,5A30.28,30.28,0,0,0,102.37,35.69Zm.36,26.59a8.45,8.45,0,0,0,1.63,5.18c1.53-.21,2.57-.82,5.9-1.34V65.4c-2.58-1-.79-19-1.29-21.12l-.87-1.44c-1.67.41-4.41,1-7.15,1.44v.53l1.78.77Zm56.08.45c0-5.35-.53-10.12.5-16a21.1,21.1,0,0,1-6.09-4.32,37.44,37.44,0,0,1-7.06,5.85l.11-4-.86-1.44c-1.66.41-4.41,1-7.15,1.44v.53l1.77.77c-.62,2.83,1.48,18-1.29,19.83v.72h8.83V65.4c-2.34-.85-.94-11.8-1.3-13.81l6-2.59.62.67c-.12,6.6.53,13.4-1.25,20.45l.22.21a21.3,21.3,0,0,1,7.32-5.18A13.87,13.87,0,0,1,158.81,62.73ZM40,71.4a14.58,14.58,0,0,0-6.77-6.57c2.28-4,3-10.68-.23-15.46,2.1-3.19,2.53-7.56,2.23-12.18A6,6,0,0,1,31,31.53c4.63.86,10,.88,14.91-2.35A30.86,30.86,0,0,0,63.17,33,12,12,0,0,1,59,38.19c-.4,2.9-1.2,8.48,1.08,12.55A13.47,13.47,0,0,0,52.23,56c-3-1-6-.89-10.17-1-.07,3.24,0,7.35,3.45,9.87C43.29,66.34,41.8,68.28,40,71.4Zm2-22.08c2.85,0,5.4-.4,9,.94.39-.38-.43-.11,1.58-1.71-.07-2.53-.21-5.75-.29-10.08-2.52-.41-6.52-1.66-10.27-2.73V49.32Zm72.61,13.39a39.82,39.82,0,0,0-.8-14.47c2.88-.63,6-2.73,8.64-5.35h0c3.35,1.11,7.79,2.35,12.32,1.78A56.5,56.5,0,0,0,135,62.09a18.68,18.68,0,0,0-10,5.42A23.36,23.36,0,0,0,113.67,65a4,4,0,0,0,1-2.28Zm6.06-15.34a74.39,74.39,0,0,1,.19,13.88,42.91,42.91,0,0,1,7.25,1.39l.1-13.64A27.88,27.88,0,0,1,120.67,47.37ZM93.39,41.68a28.53,28.53,0,0,1,.77-7.25,20.38,20.38,0,0,1-7.89,2.69A26.18,26.18,0,0,1,87,44.28a13.53,13.53,0,0,1-4,2.5v.52h4V65.17c.89.46,1.9.94,4.18,2.29a25.58,25.58,0,0,1,6.33-3.4v-.68c-6.31.09-3.75-11.93-4.23-15.69l4.68.55a9.21,9.21,0,0,1,2.21-3.83v-.19H93.39ZM71.6,68.12c-10.76.5-8.89-10.86-10-20.12,0-2.78,3.17-3.25,3.59-7.53-2.44-1.72-1.83-6,2-7,.7-1.07,8-2.91,8.49-.05,2.57.5,5.49,4.37,2.21,7.06-.22,2.82,3.66,5.37,3.58,7.53C80.49,58.48,82.08,68.37,71.6,68.12ZM65.69,51c1-4.36,7.59-3.92,6.93-.58-6,0,2.4,4.62,4.74,1.45C78.53,46.19,75.05,47.13,74,42a13.49,13.49,0,0,1-4.49.07L69.1,42C68.93,45.7,65,46.18,65.69,51Z"/><path class="g" d="M133.4,86.15c.42,6.44-5.2,7.12-9.12,4.18C123.64,84.52,129.53,82.08,133.4,86.15Zm-12-2.3c.92.18,1.74.35,2.5.52,1.78-3.51,13.16-2.89,11.29,3.59a48.87,48.87,0,0,0,7.15.67c1.13,1.6,4.64,1.37,8.35,1,5.45-5.16,6.12-5.81,6.47-11.37.84-6.7-.94-2.62-3.86-.09-5.23,4.19-9.29,1.37-16-1.18-2.78-1.82-12.46,1.58-15.86,6.86Zm12.48,8.06c-1,3.11-13.24,3-11.54-3.5-5.45-1.1-13-3.77-18.17-2.83,9.23,17.84,38.33,19.6,54.55,9.71C148.92,94.94,143.71,91,133.88,91.91Zm-24,31.67c-1.22-2.9-.43-22.54-.64-26a33.48,33.48,0,0,1-7.5-8.29c2.17,4.65,1,8.52,1.26,19.62-.8,10.71,2.14,12.47-2.5,17.26v.41a16.57,16.57,0,0,0,6.14-1.38c.47.84,3.89,2.35,5.57,3.09l.29-.43C111.51,126.45,110.71,126,109.88,123.58ZM147.32,104a43.15,43.15,0,0,1-2.94,5.66v-5a50.28,50.28,0,0,1-6.24.71c-.5,2.52,1.28,17.95-1.29,19.07v.72h10.26v-.81c-3.77.39-2.59-7.53-2.74-10l3.89-5.47c.36-.29,3.27,1.45,3.79,1.68a12.34,12.34,0,0,0,2.45-6.43c-1.19-.28-2.36-.63-3.51-1C149.83,103.39,148.6,103.74,147.32,104Zm-26.16,13.9c-.09.89-.18,1.68-.24,2.35a30.5,30.5,0,0,0,7,1.25c.29-1.87,1.64-3.51,4.37-4.27.09,1.81-.31,3.94.57,6.63a25.1,25.1,0,0,0-8.86,2.8h0a20.92,20.92,0,0,0-9.93-3.13c1.8-4.34,2-11.54.38-17.33a12.16,12.16,0,0,0,5.88-3.11,54.61,54.61,0,0,0,11.74,2.18,28.51,28.51,0,0,0,1.25,8.36c-3.29.27-7.63.81-11.9,1.54C121.37,116.08,121.29,117,121.16,117.9Zm.11-8.15c.08,1,.14,2,.17,2.83l5.61-1.39a18,18,0,0,1-.57-4.16,23.61,23.61,0,0,1-5.56-.82h0C121.07,107.54,121.19,108.73,121.27,109.75ZM73,117.91c-.1.89-.17,1.68-.24,2.35a31.47,31.47,0,0,0,7,1.25c.36-1.85,1.72-3.47,4.44-4.24.13,2.56-.37,3.21.58,6.63a25.3,25.3,0,0,0-8.87,2.79A20.88,20.88,0,0,0,66,123.56c1.85-4.35,1.94-11.55.34-17.36a14.45,14.45,0,0,0,7.15-4.27,77.62,77.62,0,0,0,10.56,1,27,27,0,0,0,1.1,10.7c-3.35.26-7.57.82-11.9,1.54A25.1,25.1,0,0,1,73,117.91Zm-.24-11.7c.23,2.14.38,3.13.52,6.38l5.62-1.39a17.33,17.33,0,0,1-.58-4.16A22.67,22.67,0,0,1,72.76,106.21Zm24.11,17.37c-.61-7.64-2.36-29.17,1.13-36.28-2.47,1-5.59,2.69-9.4,1.7,2.47,5.24,1,8.39,1.4,19.94-.78,10.65,2.11,12.67-2.5,17.22v.41a16.57,16.57,0,0,0,6.14-1.38c.64.86,2.9,1.88,5.62,3.09l.29-.43c-1-1.41-1.78-1.91-2.66-4.27ZM48.68,93.39c4.43,2.93,12.52,4.36,14.5-3.39-3.79,1.1-8.42.67-13.19-2.37-2.1,3.68-6.35,5-11.33,3.93,3.61,5.11,2.74,12.14,1.86,18.9a84.68,84.68,0,0,1,12.72-2.11c1.5,3.27,1.26,8.53,0,13.15-4.06-1.67-7.86-4.87-12.82-6.25a8.75,8.75,0,0,1-2.2,7.75c4.75.31,10.06.75,15.08,3.94A12.83,12.83,0,0,1,61.88,124c-1.46-5.92-1.14-13.27-.62-20.11-4.43.28-8.29,0-13.3,1.39C47.25,102.29,46.56,97.33,48.68,93.39Z"/></svg>